<svg width="718" height="718" viewBox="0 0 718 718" fill="none" xmlns="http://www.w3.org/2000/svg">
<path fill-rule="evenodd" clip-rule="evenodd" d="M404.612 2.87019C389.675 0.976167 374.452 0 359 0C350.358 0 341.787 0.305364 333.298 0.905892V654.023L295.746 712.445C316.28 716.095 337.417 718 359 718C374.452 718 389.675 717.024 404.612 715.13V2.87019ZM480.049 697.081V20.9194C618.761 70.5905 718 203.206 718 359C718 514.794 618.761 647.409 480.049 697.081ZM0 359C0 195.847 108.836 58.1139 257.866 14.4421V537.705L174.675 667.13C70.0359 604.4 0 489.879 0 359Z" fill="#F18505"/>
</svg>
